<svg xmlns:dc="http://purl.org/dc/elements/1.1/" xmlns:cc="http://creativecommons.org/ns#" xmlns:rdf="http://www.w3.org/1999/02/22-rdf-syntax-ns#" xmlns:svg="http://www.w3.org/2000/svg" xmlns="http://www.w3.org/2000/svg" xmlns:sodipodi="http://sodipodi.sourceforge.net/DTD/sodipodi-0.dtd" xmlns:inkscape="http://www.inkscape.org/namespaces/inkscape" version="1.1" x="0px" y="0px" viewBox="0 0 100 125"><g transform="translate(0,-952.36217)"><path style="" d="m 20.242878,957.42463 c -9.806353,0.53313 -19.35301425,19.71674 0.606305,12.98627 8.108144,12.45896 -9.157682,29.9833 -8.58702,45.7269 0.103994,2.8689 -0.69153,10.1896 5.569579,12.9863 0.101517,0.045 0.208023,0.083 0.310205,0.1269 -0.133154,5.5494 -0.22578,13.5748 0.380706,14.0296 3.340835,2.5057 5.271241,2.683 6.75399,1.7062 0.01729,0.028 0.03786,0.056 0.05643,0.07 4.85939,3.6446 6.715883,2.3563 8.58702,-0.2256 0.205993,-0.2842 0.340067,-7.338 0.408902,-11.9852 4.294369,0.3561 8.381781,0.3941 11.81596,0.4513 -0.0516,3.7369 -0.01511,7.6486 0.352501,7.9243 2.765685,2.0742 4.25314,2.0657 5.428578,1.1139 0.07327,0.7333 0.162343,1.2251 0.296107,1.3254 4.85939,3.6446 6.715882,2.3563 8.58701,-0.2256 0.276967,-0.3821 0.42503,-12.7913 0.451206,-15.1295 0.318479,-0.065 0.667066,-0.1128 1.057519,-0.1128 -0.232088,5.57 5.477708,9.7027 9.743235,10.4482 4.167231,0.7284 17.543395,-6.9884 18.795549,-13.6912 -6.701957,5.3799 -15.01342,9.654 -19.260862,3.243 -7.627459,-11.5128 -7.682924,-33.79399 -22.743607,-35.26456 -11.982964,-1.17006 -20.037028,7.73026 -19.415961,4.17366 2.289887,-13.19645 3.402479,-40.36272 -9.193323,-39.67794 z" fill="#000000" fill-opacity="1" stroke="none"/></g><text x="0" y="115" fill="#000000" font-size="5px" font-weight="bold" font-family="'Helvetica Neue', Helvetica, Arial-Unicode, Arial, Sans-serif">Created by Sandra M</text><text x="0" y="120" fill="#000000" font-size="5px" font-weight="bold" font-family="'Helvetica Neue', Helvetica, Arial-Unicode, Arial, Sans-serif">from the Noun Project</text></svg>